<svg width="96" height="96" viewBox="0 0 96 96" fill="none" xmlns="http://www.w3.org/2000/svg">
<g filter="url(#filter0_d_656_3865)">
<path d="M78 48C78 64.5685 64.5685 78 48 78C31.4315 78 18 64.5685 18 48C18 31.4315 31.4315 18 48 18C64.5685 18 78 31.4315 78 48Z" fill="white" fill-opacity="0.9"/>
<path d="M54.8069 39.6807C54.8069 43.3007 51.8723 46.2353 48.2523 46.2353C44.6323 46.2353 41.6977 43.3007 41.6977 39.6807C41.6977 36.0607 44.6323 33.1261 48.2523 33.1261C51.8723 33.1261 54.8069 36.0607 54.8069 39.6807Z" fill="#5A78FA"/>
<path d="M59.1192 63.3786C61.1932 63.3786 62.8978 61.6798 62.4501 59.6547C61.8173 56.7926 60.4935 53.946 58.5918 52.0402C55.8497 49.2922 52.1306 47.7483 48.2526 47.7483C44.3747 47.7483 40.6555 49.2922 37.9134 52.0402C36.0117 53.946 34.6879 56.7926 34.0551 59.6547C33.6074 61.6798 35.3121 63.3786 37.386 63.3786H59.1192Z" fill="#5A78FA"/>
</g>
<defs>
<filter id="filter0_d_656_3865" x="0.183537" y="0.183537" width="95.6329" height="95.6329" filterUnits="userSpaceOnUse" color-interpolation-filters="sRGB">
<feFlood flood-opacity="0" result="BackgroundImageFix"/>
<feColorMatrix in="SourceAlpha" type="matrix" values="0 0 0 0 0 0 0 0 0 0 0 0 0 0 0 0 0 0 127 0" result="hardAlpha"/>
<feMorphology radius="2.81646" operator="dilate" in="SourceAlpha" result="effect1_dropShadow_656_3865"/>
<feOffset/>
<feGaussianBlur stdDeviation="7.5"/>
<feComposite in2="hardAlpha" operator="out"/>
<feColorMatrix type="matrix" values="0 0 0 0 0 0 0 0 0 0 0 0 0 0 0 0 0 0 0.15 0"/>
<feBlend mode="normal" in2="BackgroundImageFix" result="effect1_dropShadow_656_3865"/>
<feBlend mode="normal" in="SourceGraphic" in2="effect1_dropShadow_656_3865" result="shape"/>
</filter>
</defs>
</svg>
