<svg width="37" height="37" viewBox="0 0 37 37" fill="none" xmlns="http://www.w3.org/2000/svg">
<path d="M4.62494 5.78136V1.15626C4.62494 0.517086 5.14203 0 5.78135 0C6.42036 0 6.93745 0.517086 6.93745 1.15626V5.78136C6.93745 6.42038 6.42036 6.93747 5.78135 6.93747C5.14203 6.93754 4.62494 6.42038 4.62494 5.78136ZM24.2813 6.93754C24.9202 6.93754 25.4376 6.42046 25.4376 5.78144V1.15626C25.4376 0.517086 24.9202 0 24.2813 0C23.6422 0 23.1247 0.517086 23.1247 1.15626V5.78136C23.1247 6.42038 23.6422 6.93754 24.2813 6.93754ZM36.9998 27.7497C36.9998 32.8585 32.8582 37 27.7498 37C22.6418 37 18.4999 32.8585 18.4999 27.7497C18.4999 22.6417 22.6417 18.5 27.7498 18.5C32.8582 18.5 36.9998 22.6416 36.9998 27.7497ZM34.6876 27.7497C34.6876 23.9247 31.5756 20.8123 27.7499 20.8123C23.9245 20.8123 20.8125 23.9246 20.8125 27.7497C20.8125 31.5755 23.9245 34.6874 27.7499 34.6874C31.5756 34.6874 34.6876 31.5755 34.6876 27.7497ZM9.25003 13.875H4.62494V18.5H9.25003V13.875ZM4.62494 25.4375H9.25003V20.8123H4.62494V25.4375ZM11.5624 18.5H16.1876V13.875H11.5624V18.5ZM11.5624 25.4375H16.1876V20.8123H11.5624V25.4375ZM2.31258 27.5198V11.5624H27.7499V16.1875H30.0625V7.16799C30.0625 5.76329 28.9421 4.62495 27.558 4.62495H26.5936V5.78144C26.5936 7.05498 25.5569 8.09388 24.2814 8.09388C23.0056 8.09388 21.9689 7.05498 21.9689 5.78144V4.62495H8.09363V5.78144C8.09363 7.05498 7.05709 8.09388 5.78142 8.09388C4.50545 8.09388 3.46884 7.05498 3.46884 5.78144V4.62495H2.50559C1.12141 4.62495 0 5.76329 0 7.16799V27.5199C0 28.9199 1.12141 30.0627 2.50559 30.0627H16.1876V27.7498H2.50559C2.40081 27.7497 2.31258 27.6415 2.31258 27.5198ZM23.1247 18.5V13.875H18.5V18.5H23.1247ZM32.6547 25.4966C32.203 25.0446 31.4713 25.0446 31.02 25.4966L26.9326 29.584L24.4795 27.1312C24.0278 26.6795 23.2961 26.6795 22.8445 27.1312C22.393 27.5829 22.3929 28.3146 22.8445 28.7661L26.1148 32.0364C26.3405 32.262 26.6366 32.3748 26.9327 32.3748C27.2281 32.3748 27.5239 32.262 27.7498 32.0364L32.6547 27.1312C33.1063 26.6795 33.1063 25.9483 32.6547 25.4966Z" fill="#5A78FA"/>
</svg>
