<svg width="34" height="30" viewBox="0 0 34 30" fill="none" xmlns="http://www.w3.org/2000/svg">
<path d="M15.6272 14.83C15.1427 13.7378 14.875 12.4911 14.875 11.1111C14.875 9.73111 15.1427 8.34556 15.6272 7.04556C16.1107 5.74444 16.8109 4.52778 17.6768 3.48444C18.5417 2.44222 19.5723 1.57 20.7156 0.961111C21.8599 0.348889 23.1179 0 24.4375 0C25.7571 0 27.0151 0.28 28.1594 0.785556C29.3038 1.29222 30.3333 2.02444 31.1982 2.92889C32.062 3.83333 32.7643 4.91111 33.2477 6.10778C33.7333 7.30333 34 8.62 34 10C34 11.38 33.7322 12.6967 33.2477 13.8922C32.7643 15.0889 32.0641 16.1667 31.1982 17.0711C30.3344 17.9756 18.1443 29.4933 17 30C15.8557 29.4933 3.66562 17.9756 2.80075 17.0711C1.93587 16.1667 1.23569 15.0889 0.751188 13.8922C0.26775 12.6967 0 11.38 0 10C0 8.62 0.26775 7.30333 0.751188 6.10778C1.23569 4.91111 1.93481 3.83333 2.80075 2.92889C3.66562 2.02444 4.69625 1.29222 5.84056 0.785556C6.98381 0.28 8.24181 0 9.5625 0C10.8832 0 12.1412 0.348889 13.2844 0.958889C14.4288 1.57 15.4583 2.44111 16.3243 3.48333C17.1891 4.52667 17.8893 5.74333 18.3738 7.04444C18.8572 8.34556 19.125 9.73111 19.125 11.1111C19.125 12.4911 18.8572 13.7378 18.3738 14.83C17.8893 15.9222 17.1913 16.8611 16.3243 17.6278" fill="#5A78FA"/>
</svg>
