<svg width="45" height="45" viewBox="0 0 45 45" fill="none" xmlns="http://www.w3.org/2000/svg">
<path d="M16.8084 0.0252696C22.7598 -0.302311 28.034 2.56024 30.5139 8.30909C31.2204 9.94717 31.853 11.0462 31.2791 13.0013C30.9921 13.9789 29.079 14.5653 28.0268 15.4452C26.9746 16.3251 26.305 17.0095 25.3485 18.0847C24.7397 18.769 24.2006 19.7366 24.0093 19.8442C23.7001 20.018 23.0127 19.8129 22.6702 19.766C21.3037 19.5789 19.9808 18.5237 17.6704 16.381C16.2741 15.5746 15.2488 15.1894 14.5944 15.2254L13.9501 15.2609C12.2731 15.3532 11.0908 16.659 10.4031 19.1783L10.4396 19.8703C10.9475 22.1136 11.9582 23.1935 13.4716 23.1102L13.8704 23.0883C14.2794 23.0658 15.8274 22.2761 18.5143 20.7192C18.8371 20.6173 19.1417 20.5585 19.428 20.5427C21.739 20.4155 23.1878 21.8289 23.7742 24.7828C23.5066 28.2674 22.0843 30.0807 19.5074 30.2225C18.7303 30.2653 17.1442 29.5534 14.7492 28.087L13.9822 28.1292C13.6346 28.1484 13.3607 28.5946 13.1606 29.4678C13.1948 30.1178 14.4439 33.0412 16.1809 37.1561C16.3065 37.4402 16.3732 38.2222 16.3732 38.4704C16.5224 41.3012 15.0623 43.3689 11.9929 44.6734C11.6336 44.8614 11.229 44.9678 10.7791 44.9926C8.67255 45.1085 6.40217 43.8666 3.96793 41.2667C2.74363 39.4414 2.06794 37.3231 1.94085 34.9117L2.40863 26.2743C2.37437 25.6242 1.64453 22.4784 0.219099 16.8368C0.122926 16.5687 0.054395 16.0467 0.0135058 15.2709C-0.225199 10.7416 2.70028 6.51136 8.78994 2.5801C11.7018 1.01084 14.3746 0.159229 16.8084 0.0252696Z" fill="#5A78FA"/>
<path d="M35.487 15.162C31.682 14.3607 28.5483 15.7401 26.0856 19.3004C25.7211 19.9589 25.4007 20.7031 25.1243 21.5328C24.7137 23.569 25.4759 25.3319 27.411 26.8216C27.8207 27.0882 28.2151 27.2615 28.5943 27.3413L28.6727 27.3579C29.7057 27.5754 31.2794 26.9703 33.3937 25.5427C34.3694 25.1654 35.0665 25.0209 35.4849 25.109L35.8968 25.1958C36.969 25.4216 37.6082 26.3747 37.8146 28.0553L37.726 28.4945C37.1877 29.8795 36.4348 30.4701 35.4672 30.2663L35.2123 30.2126C34.9508 30.1576 34.0273 29.4983 32.442 28.2349C32.2435 28.1376 32.0527 28.0697 31.8697 28.0311C30.3921 27.72 29.3256 28.4804 28.6699 30.3124C28.5148 32.5689 29.2609 33.8706 30.9084 34.2175C31.4053 34.3222 32.4945 34.0244 34.1759 33.3241L34.6663 33.4273C34.8885 33.4741 35.0231 33.7869 35.07 34.3656C34.9868 34.7782 33.7661 36.5604 32.4006 38.9853C32.3085 39.13 32.1837 39.6552 32.153 39.8072C31.7907 41.6038 32.5374 43.0721 34.393 44.2121C34.6069 44.3682 34.8577 44.4765 35.1453 44.537C36.4921 44.8207 38.0721 44.2516 39.8855 42.8299C40.8461 41.7836 41.4808 40.4952 41.7894 38.9647L42.3 33.391C42.3831 32.9784 43.1493 31.0379 44.5984 27.5694C44.6856 27.4074 44.7788 27.0802 44.8781 26.5878C45.4578 23.7131 43.97 20.7152 40.4147 17.5941C38.6855 16.3004 37.043 15.4897 35.487 15.162Z" fill="#5A78FA"/>
</svg>
