<svg width="43" height="42" viewBox="0 0 43 42" fill="none" xmlns="http://www.w3.org/2000/svg">
<path d="M16.0613 0.023585C21.7482 -0.282157 26.7881 2.38955 29.1577 7.75515C29.8329 9.28403 30.4373 10.3098 29.8889 12.1346C29.6147 13.047 27.7866 13.5943 26.7812 14.4155C25.7758 15.2367 25.1359 15.8755 24.2219 16.879C23.6402 17.5177 23.1251 18.4209 22.9423 18.5212C22.6467 18.6835 21.99 18.492 21.6626 18.4483C20.3569 18.2737 19.0928 17.2888 16.885 15.2889C15.5509 14.5363 14.5711 14.1767 13.9457 14.2104L13.3301 14.2435C11.7276 14.3296 10.5978 15.5484 9.94074 17.8998L9.97559 18.5456C10.4609 20.6393 11.4267 21.6473 12.8729 21.5695L13.2539 21.5491C13.6448 21.528 15.124 20.791 17.6915 19.3379C17.9999 19.2428 18.291 19.1879 18.5646 19.1732C20.7729 19.0545 22.1572 20.3736 22.7175 23.1306C22.4618 26.3829 21.1028 28.0753 18.6404 28.2077C17.8978 28.2476 16.3822 27.5832 14.0937 26.2146L13.3608 26.254C13.0286 26.2718 12.7669 26.6883 12.5756 27.5033C12.6084 28.11 13.8019 30.8385 15.4617 34.679C15.5818 34.9442 15.6455 35.6741 15.6455 35.9057C15.7881 38.5478 14.3929 40.4776 11.4599 41.6952C11.1166 41.8707 10.7299 41.97 10.3 41.9931C8.2871 42.1013 6.11763 40.9421 3.79157 38.5156C2.62169 36.812 1.97603 34.8349 1.85459 32.5842L2.30158 24.5226C2.26884 23.9159 1.57144 20.9798 0.209361 15.7143C0.117463 15.4641 0.0519774 14.977 0.0129055 14.2528C-0.21519 10.0255 2.58027 6.07727 8.39927 2.4081C11.1817 0.943451 13.7358 0.148613 16.0613 0.023585Z" fill="white"/>
<path d="M33.9098 14.1512C30.274 13.4033 27.2794 14.6908 24.9263 18.0137C24.5779 18.6283 24.2718 19.3229 24.0077 20.0973C23.6153 21.9977 24.3437 23.6431 26.1927 25.0335C26.5842 25.2823 26.9611 25.444 27.3234 25.5186L27.3984 25.534C28.3854 25.737 29.8892 25.1723 31.9096 23.8398C32.8419 23.4878 33.508 23.3528 33.9078 23.4351L34.3014 23.516C35.3259 23.7268 35.9367 24.6164 36.1339 26.1849L36.0493 26.5948C35.535 27.8875 34.8155 28.4388 33.8909 28.2486L33.6473 28.1985C33.3974 28.1471 32.515 27.5318 31.0001 26.3526C30.8104 26.2618 30.6282 26.1984 30.4532 26.1624C29.0414 25.872 28.0222 26.5817 27.3957 28.2915C27.2474 30.3976 27.9604 31.6125 29.5347 31.9364C30.0095 32.034 31.0503 31.7561 32.657 31.1025L33.1255 31.1988C33.3379 31.2425 33.4665 31.5344 33.5113 32.0746C33.4318 32.4596 32.2654 34.123 30.9605 36.3862C30.8726 36.5213 30.7533 37.0115 30.724 37.1534C30.3778 38.8302 31.0913 40.2007 32.8644 41.2646C33.0688 41.4103 33.3085 41.5114 33.5833 41.5679C34.8702 41.8326 36.38 41.3015 38.1128 39.9746C39.0307 38.998 39.6372 37.7955 39.9321 36.3671L40.42 31.1649C40.4994 30.7798 41.2315 28.9687 42.6162 25.7314C42.6995 25.5802 42.7886 25.2748 42.8835 24.8152C43.4374 22.1322 42.0158 19.3342 38.6185 16.4211C36.9662 15.2137 35.3966 14.457 33.9098 14.1512Z" fill="white"/>
</svg>
