<svg width="36" height="27" viewBox="0 0 36 27" fill="none" xmlns="http://www.w3.org/2000/svg">
<path d="M18.988 5.84995C18.988 9.08079 16.3061 11.6999 12.9977 11.6999C9.68939 11.6999 7.00745 9.08079 7.00745 5.84995C7.00745 2.61911 9.68939 0 12.9977 0C16.3061 0 18.988 2.61911 18.988 5.84995Z" fill="#5A78FA"/>
<path d="M22.6744 26.9998C24.7103 26.9998 26.3847 25.369 25.9161 23.4342C25.3176 20.9621 24.1298 18.5275 22.4468 16.8804C19.9407 14.4278 16.5418 13.0499 12.9977 13.0499C9.45366 13.0499 6.05475 14.4278 3.54871 16.8804C1.86565 18.5275 0.677916 20.9621 0.0793248 23.4342C-0.389183 25.369 1.28522 26.9998 3.32112 26.9998L22.6744 26.9998Z" fill="#5A78FA"/>
<path d="M26.6748 22.7372C26.6748 22.7372 26.5372 22.7372 26.4994 22.5879C25.8874 20.169 24.6261 17.9593 22.9741 16.3425C22.3457 15.7275 21.7357 15.1784 21.0201 14.703C20.918 14.6352 20.9116 14.4882 21.011 14.4167C22.6356 13.2479 24.5914 12.4583 26.6125 12.4583C29.1721 12.4583 31.6269 13.4736 33.4368 15.2808C34.6523 16.4945 35.5102 18.2884 35.9425 20.1099C36.2808 21.5356 35.0715 22.7372 33.6012 22.7372H26.6748Z" fill="#5A78FA"/>
<path d="M26.6125 11.4636C29.0019 11.4636 30.9388 9.53372 30.9388 7.1531C30.9388 4.77248 29.0019 2.84261 26.6125 2.84261C24.2231 2.84261 22.2862 4.77248 22.2862 7.1531C22.2862 9.53372 24.2231 11.4636 26.6125 11.4636Z" fill="#5A78FA"/>
</svg>
