<svg width="96" height="96" viewBox="0 0 96 96" fill="none" xmlns="http://www.w3.org/2000/svg">
<g filter="url(#filter0_d_656_3864)">
<path d="M78 48C78 64.5685 64.5685 78 48 78C31.4315 78 18 64.5685 18 48C18 31.4315 31.4315 18 48 18C64.5685 18 78 31.4315 78 48Z" fill="white" fill-opacity="0.9"/>
<path d="M48 30C38.1 30 30 38.1 30 48C30 57.9 38.1 66 48 66C57.9 66 66 57.9 66 48C66 38.1 57.9 30 48 30ZM59.7 41.925C60.6 41.925 61.275 42.6 62.175 42.6C61.5 43.5 58.575 43.5 57.675 42.375C58.35 42.15 58.8 41.925 59.7 41.925ZM32.25 48C32.25 47.1 32.25 46.2 32.475 45.075C32.7 45.075 32.925 45.3 33.15 45.3C33.15 45.3 33.375 45.525 33.375 45.75C33.375 46.425 34.05 46.875 34.5 46.875C36.3 47.1 36.975 48.675 38.55 49.125C39 49.35 38.775 49.8 38.55 50.25C37.2 52.05 38.325 53.4 39.45 54.525C40.575 55.425 40.575 56.325 40.8 57.675C40.8 59.25 41.025 61.05 41.7 62.625C36.075 59.925 32.25 54.525 32.25 48ZM48 63.75C46.425 63.75 44.625 63.525 43.275 63.075C43.05 62.625 43.05 62.175 43.275 61.725C44.175 59.925 45.075 58.35 46.2 56.775C46.65 56.325 47.1 55.875 47.1 55.2C47.1 54.75 47.325 54.075 47.55 53.625C48.225 52.5 48 51.825 47.1 51.6C45.3 51.15 44.4 49.575 43.05 48.9C41.7 48.225 40.35 47.775 39.225 48.45C38.775 48.675 38.1 48.9 38.1 48.225C38.1 47.325 36.975 46.65 37.2 45.75C36.975 45.75 36.75 45.75 36.525 45.975C36.3 46.2 36.075 46.425 35.625 46.2C35.175 45.75 35.4 45.3 35.4 44.85C35.625 44.4 35.85 44.175 36.3 43.95C37.2 43.725 38.1 43.725 38.55 44.85C39.225 42.825 40.575 41.7 41.925 40.8C41.925 40.8 43.725 39.225 43.95 39.225C44.175 39.225 44.4 39.675 44.85 39.9C45.3 39.9 45.525 39.9 45.525 39.45C45.75 38.325 45.075 36.975 44.175 36.75C44.175 36.525 44.4 36.525 44.4 36.525C45.075 36.3 45.975 35.85 45.75 35.175C45.75 34.275 44.85 33.825 43.95 33.825C43.5 33.825 43.05 33.825 42.6 34.05C41.7 34.5 40.575 34.95 39.225 34.95C41.7 33.15 44.85 32.25 48 32.25C48.675 32.25 49.125 32.25 49.8 32.25C48.45 32.475 47.1 32.925 46.2 33.375C47.55 33.6 47.775 34.275 47.325 35.4C47.1 35.85 47.325 36.3 47.775 36.525C48.225 36.75 48.675 36.75 48.9 36.3C49.35 35.625 50.25 35.4 50.925 35.175C51.825 34.95 52.5 34.5 53.175 33.6C53.175 33.375 53.4 33.375 53.625 33.15C54.975 33.6 56.325 34.5 57.675 35.4C57.45 35.4 57.45 35.625 57.225 35.625C56.775 36.075 56.1 36.3 56.775 37.2C57 37.65 56.775 37.875 56.55 38.1C56.1 38.325 55.875 38.1 55.65 37.875C55.425 37.65 55.425 37.2 54.75 37.2C54.525 37.65 53.85 37.875 53.85 38.55C54.975 38.55 54.75 39.45 54.975 40.125C53.625 40.35 53.175 41.025 53.85 42.15C54.075 42.6 53.625 42.825 53.4 43.05C52.5 44.4 51.6 45.3 51.6 46.875C51.6 48.45 52.725 50.025 54.525 49.8C56.55 49.575 56.55 49.575 57.225 51.375C57.225 51.6 57.45 51.825 57.45 52.05C57.675 52.5 57.9 52.95 57.675 53.4C57 55.2 57.9 56.55 58.575 57.9C58.8 58.35 59.025 58.575 59.25 58.8C56.325 61.95 52.5 63.75 48 63.75Z" fill="#5A78FA"/>
<path d="M59.7 41.925C60.6 41.925 61.275 42.6 62.175 42.6C61.5 43.5 58.575 43.5 57.675 42.375C58.35 42.15 58.8 41.925 59.7 41.925Z" fill="#5A78FA"/>
</g>
<defs>
<filter id="filter0_d_656_3864" x="0.183537" y="0.183537" width="95.6329" height="95.6329" filterUnits="userSpaceOnUse" color-interpolation-filters="sRGB">
<feFlood flood-opacity="0" result="BackgroundImageFix"/>
<feColorMatrix in="SourceAlpha" type="matrix" values="0 0 0 0 0 0 0 0 0 0 0 0 0 0 0 0 0 0 127 0" result="hardAlpha"/>
<feMorphology radius="2.81646" operator="dilate" in="SourceAlpha" result="effect1_dropShadow_656_3864"/>
<feOffset/>
<feGaussianBlur stdDeviation="7.5"/>
<feComposite in2="hardAlpha" operator="out"/>
<feColorMatrix type="matrix" values="0 0 0 0 0 0 0 0 0 0 0 0 0 0 0 0 0 0 0.15 0"/>
<feBlend mode="normal" in2="BackgroundImageFix" result="effect1_dropShadow_656_3864"/>
<feBlend mode="normal" in="SourceGraphic" in2="effect1_dropShadow_656_3864" result="shape"/>
</filter>
</defs>
</svg>
