<svg width="32" height="32" viewBox="0 0 32 32" fill="none" xmlns="http://www.w3.org/2000/svg">
<path d="M17.9022 32H13.8854C13.0432 32 12.3299 31.3955 12.192 30.5641L11.72 27.6651C11.5059 27.587 11.2935 27.5017 11.0848 27.4127L8.75051 29.19C8.10433 29.6801 7.1224 29.6311 6.53064 29.0701L3.61562 26.3091C3.0366 25.759 2.91502 24.8623 3.32698 24.1779L4.94789 21.4841C4.75729 21.0847 4.58664 20.6726 4.43965 20.2533L1.34678 19.5726C0.551754 19.3965 0 18.7067 0 17.8952L0.00185152 13.878C0.00370305 13.032 0.609872 12.3204 1.44121 12.1861L4.59404 11.6723C4.71933 11.3565 4.85902 11.0443 5.00971 10.7393L3.27627 7.90199C2.85875 7.21942 2.97499 6.32451 3.5504 5.77084L6.45267 2.98984C7.03528 2.42351 8.01185 2.36179 8.66884 2.85548L11.308 4.83777C11.4314 4.7888 11.5548 4.74158 11.6819 4.69622L12.1937 1.43592C12.3298 0.60449 13.0432 0 13.8854 0H17.9022C18.7027 0 19.4069 0.566323 19.5775 1.34879L20.3127 4.69436C20.427 4.73613 20.5396 4.77605 20.6521 4.82141L23.4782 2.9026C24.1298 2.46333 25.0518 2.53596 25.6218 3.07687L28.5387 5.83792C29.154 6.4206 29.2538 7.35007 28.7765 8.04889L26.9723 10.7047C27.132 11.0242 27.2773 11.351 27.4079 11.6831L30.5625 12.1986C31.3956 12.3347 32 13.0464 32 13.8905L31.9981 17.9078C31.9981 18.7083 31.43 19.4126 30.6495 19.5814L27.5567 20.2585C27.4242 20.6379 27.2735 21.0083 27.1047 21.3677L28.8272 23.871C29.3046 24.5662 29.2102 25.4957 28.6021 26.0802L25.7035 28.8612C25.1354 29.4076 24.2152 29.4856 23.5598 29.0482L21.0332 27.3564C20.7737 27.4725 20.5069 27.5814 20.231 27.6813L19.5794 30.653C19.4069 31.4337 18.7027 32 17.9022 32ZM14.1141 30.0177H17.6879L18.4139 26.7121C18.4901 26.3654 18.7461 26.0858 19.0837 25.9787C19.6337 25.8062 20.16 25.5974 20.6646 25.3397C20.9858 25.1763 21.3706 25.1999 21.6664 25.3996L24.4834 27.2857L27.0627 24.8114L25.1388 22.0159C24.9301 21.711 24.9064 21.317 25.0806 20.9903C25.3892 20.4093 25.6452 19.7849 25.8412 19.1332C25.9447 18.7883 26.226 18.5269 26.5781 18.4506L30.014 17.6973L30.0159 14.123L26.5146 13.5494C26.1533 13.4895 25.8539 13.2353 25.7359 12.8886C25.5253 12.2678 25.2694 11.6941 24.9518 11.135C24.7666 10.8064 24.7811 10.3998 24.9954 10.0894L27.0083 7.12323L24.4128 4.66535L21.5541 6.60587C21.5233 6.64404 21.4924 6.67665 21.4579 6.70576C21.1639 6.96902 20.7355 7.03074 20.378 6.86193C19.9768 6.67315 19.5557 6.52789 19.1292 6.39354C18.7299 6.26649 18.454 5.89974 18.4395 5.48043L17.6863 1.98239H14.1142L13.5352 5.52579L13.497 5.51849C13.408 5.88884 13.1794 6.28995 12.8617 6.39169C12.4206 6.53324 11.9886 6.68395 11.5767 6.88178C11.2101 7.0542 10.7799 6.99247 10.4822 6.72027C10.4549 6.69671 10.4278 6.6676 10.4024 6.63859L7.65965 4.57822L5.08038 7.0507L6.91544 10.0513C6.93725 10.0804 6.96081 10.1095 6.97901 10.1403C7.18597 10.4507 7.20222 10.8501 7.02078 11.175C6.71949 11.7142 6.46532 12.2878 6.26391 12.876C6.14593 13.2226 5.84639 13.4769 5.48339 13.5349L1.98391 14.1066L1.98206 17.6809L5.41797 18.4361C5.76832 18.5142 6.0514 18.7756 6.15488 19.1204C6.35453 19.794 6.62321 20.4438 6.95165 21.0519C7.1186 21.3605 7.10955 21.7345 6.9281 22.0339L5.13294 25.0146L7.72672 27.4725L10.3568 25.472C10.6563 25.2433 11.0647 25.2051 11.4005 25.374C11.8814 25.6136 12.3806 25.8096 12.8997 25.973C13.2555 26.0855 13.5186 26.3887 13.5803 26.7572L14.1141 30.0177ZM16.1034 22.0323C12.8744 22.0323 10.2461 19.4038 10.2461 16.1743C10.2461 12.9431 12.8744 10.3146 16.1034 10.3146C19.3342 10.3146 21.9625 12.9431 21.9625 16.1743C21.9643 19.4038 19.3361 22.0323 16.1034 22.0323ZM16.1034 12.2969C13.9671 12.2969 12.2282 14.036 12.2282 16.1743C12.2282 18.3109 13.9671 20.05 16.1034 20.05C18.2416 20.05 19.9804 18.3109 19.9804 16.1743C19.9804 14.0359 18.2416 12.2969 16.1034 12.2969Z" fill="#5A78FA"/>
<path fill-rule="evenodd" clip-rule="evenodd" d="M14.1141 30.0177H17.6879L18.4139 26.7121C18.4901 26.3654 18.7461 26.0858 19.0837 25.9787C19.6337 25.8062 20.16 25.5974 20.6646 25.3397C20.9858 25.1763 21.3706 25.1999 21.6664 25.3996L24.4834 27.2857L27.0627 24.8114L25.1388 22.0159C24.9301 21.711 24.9064 21.317 25.0806 20.9903C25.3892 20.4093 25.6452 19.7849 25.8412 19.1332C25.9447 18.7883 26.226 18.5269 26.5781 18.4506L30.014 17.6973L30.0159 14.123L26.5146 13.5494C26.1533 13.4895 25.8539 13.2353 25.7359 12.8886C25.5253 12.2678 25.2694 11.6941 24.9518 11.135C24.7666 10.8064 24.7811 10.3998 24.9954 10.0894L27.0083 7.12323L24.4128 4.66535L21.5541 6.60587C21.5233 6.64404 21.4924 6.67665 21.4579 6.70576C21.1639 6.96902 20.7355 7.03074 20.378 6.86193C19.9768 6.67315 19.5557 6.52789 19.1292 6.39354C18.7299 6.26649 18.454 5.89974 18.4395 5.48043L17.6863 1.98239H14.1142L13.5352 5.52579L13.497 5.51849C13.408 5.88884 13.1794 6.28995 12.8617 6.39169C12.4206 6.53324 11.9886 6.68395 11.5767 6.88178C11.2101 7.0542 10.7799 6.99247 10.4822 6.72027C10.4549 6.69671 10.4278 6.6676 10.4024 6.63859L7.65965 4.57822L5.08038 7.0507L6.91544 10.0513C6.93725 10.0804 6.96081 10.1095 6.97901 10.1403C7.18597 10.4507 7.20222 10.8501 7.02078 11.175C6.71949 11.7142 6.46532 12.2878 6.26391 12.876C6.14593 13.2226 5.84639 13.4769 5.48339 13.5349L1.98391 14.1066L1.98206 17.6809L5.41797 18.4361C5.76832 18.5142 6.0514 18.7756 6.15488 19.1204C6.35453 19.794 6.62321 20.4438 6.95165 21.0519C7.1186 21.3605 7.10955 21.7345 6.9281 22.0339L5.13294 25.0146L7.72672 27.4725L10.3568 25.472C10.6563 25.2433 11.0647 25.2051 11.4005 25.374C11.8814 25.6136 12.3806 25.8096 12.8997 25.973C13.2555 26.0855 13.5186 26.3887 13.5803 26.7572L14.1141 30.0177ZM10.2461 16.1743C10.2461 19.4038 12.8744 22.0323 16.1034 22.0323C19.3361 22.0323 21.9643 19.4038 21.9625 16.1743C21.9625 12.9431 19.3342 10.3146 16.1034 10.3146C12.8744 10.3146 10.2461 12.9431 10.2461 16.1743Z" fill="#5A78FA"/>
</svg>
